<svg id="visual" viewBox="0 0 960 300" width="960" height="300" xmlns="http://www.w3.org/2000/svg" xmlns:xlink="http://www.w3.org/1999/xlink" version="1.1"><path d="M0 114L22.8 110.5C45.7 107 91.3 100 137 97.8C182.7 95.7 228.3 98.3 274 103.5C319.7 108.7 365.3 116.3 411.2 117C457 117.7 503 111.3 548.8 106.8C594.7 102.3 640.3 99.7 686 100.8C731.7 102 777.3 107 823 110.5C868.7 114 914.3 116 937.2 117L960 118L960 0L937.2 0C914.3 0 868.7 0 823 0C777.3 0 731.7 0 686 0C640.3 0 594.7 0 548.8 0C503 0 457 0 411.2 0C365.3 0 319.7 0 274 0C228.3 0 182.7 0 137 0C91.3 0 45.7 0 22.8 0L0 0Z" fill="#c62368"></path><path d="M0 88L22.8 85.5C45.7 83 91.3 78 137 76.7C182.7 75.3 228.3 77.7 274 77.3C319.7 77 365.3 74 411.2 71.5C457 69 503 67 548.8 71.2C594.7 75.3 640.3 85.7 686 90.3C731.7 95 777.3 94 823 92.8C868.7 91.7 914.3 90.3 937.2 89.7L960 89L960 0L937.2 0C914.3 0 868.7 0 823 0C777.3 0 731.7 0 686 0C640.3 0 594.7 0 548.8 0C503 0 457 0 411.2 0C365.3 0 319.7 0 274 0C228.3 0 182.7 0 137 0C91.3 0 45.7 0 22.8 0L0 0Z" fill="#e95667"></path><path d="M0 74L22.8 69.2C45.7 64.3 91.3 54.7 137 50.5C182.7 46.3 228.3 47.7 274 50.2C319.7 52.7 365.3 56.3 411.2 57.3C457 58.3 503 56.7 548.8 58.7C594.7 60.7 640.3 66.3 686 66.8C731.7 67.3 777.3 62.7 823 63.5C868.7 64.3 914.3 70.7 937.2 73.8L960 77L960 0L937.2 0C914.3 0 868.7 0 823 0C777.3 0 731.7 0 686 0C640.3 0 594.7 0 548.8 0C503 0 457 0 411.2 0C365.3 0 319.7 0 274 0C228.3 0 182.7 0 137 0C91.3 0 45.7 0 22.8 0L0 0Z" fill="#fa7268"></path><path d="M0 35L22.8 34.2C45.7 33.3 91.3 31.7 137 32.8C182.7 34 228.3 38 274 41.8C319.7 45.7 365.3 49.3 411.2 50.7C457 52 503 51 548.8 48.8C594.7 46.7 640.3 43.3 686 41.2C731.7 39 777.3 38 823 39.8C868.7 41.7 914.3 46.3 937.2 48.7L960 51L960 0L937.2 0C914.3 0 868.7 0 823 0C777.3 0 731.7 0 686 0C640.3 0 594.7 0 548.8 0C503 0 457 0 411.2 0C365.3 0 319.7 0 274 0C228.3 0 182.7 0 137 0C91.3 0 45.7 0 22.8 0L0 0Z" fill="#e95667"></path><path d="M0 30L22.8 31C45.7 32 91.3 34 137 34.3C182.7 34.7 228.3 33.3 274 32.5C319.7 31.7 365.3 31.3 411.2 31C457 30.7 503 30.3 548.8 27.2C594.7 24 640.3 18 686 18.7C731.7 19.3 777.3 26.7 823 30.5C868.7 34.3 914.3 34.7 937.2 34.8L960 35L960 0L937.2 0C914.3 0 868.7 0 823 0C777.3 0 731.7 0 686 0C640.3 0 594.7 0 548.8 0C503 0 457 0 411.2 0C365.3 0 319.7 0 274 0C228.3 0 182.7 0 137 0C91.3 0 45.7 0 22.8 0L0 0Z" fill="#c62368"></path></svg>