<svg id="visual" viewBox="0 0 960 300" width="960" height="300" xmlns="http://www.w3.org/2000/svg" xmlns:xlink="http://www.w3.org/1999/xlink" version="1.1"><path d="M0 43L14.5 49C29 55 58 67 87.2 66.5C116.3 66 145.7 53 174.8 47.5C204 42 233 44 262 45.5C291 47 320 48 349 49.5C378 51 407 53 436.2 57C465.3 61 494.7 67 523.8 66.5C553 66 582 59 611 56C640 53 669 54 698 56C727 58 756 61 785.2 60.5C814.3 60 843.7 56 872.8 52C902 48 931 44 945.5 42L960 40L960 0L945.5 0C931 0 902 0 872.8 0C843.7 0 814.3 0 785.2 0C756 0 727 0 698 0C669 0 640 0 611 0C582 0 553 0 523.8 0C494.7 0 465.3 0 436.2 0C407 0 378 0 349 0C320 0 291 0 262 0C233 0 204 0 174.8 0C145.7 0 116.3 0 87.2 0C58 0 29 0 14.5 0L0 0Z" fill="#bb004d"></path><path d="M0 64L14.5 74C29 84 58 104 87.2 104.5C116.3 105 145.7 86 174.8 82.5C204 79 233 91 262 95C291 99 320 95 349 92C378 89 407 87 436.2 93.5C465.3 100 494.7 115 523.8 118.5C553 122 582 114 611 111C640 108 669 110 698 113C727 116 756 120 785.2 118.5C814.3 117 843.7 110 872.8 99.5C902 89 931 75 945.5 68L960 61L960 38L945.5 40C931 42 902 46 872.8 50C843.7 54 814.3 58 785.2 58.5C756 59 727 56 698 54C669 52 640 51 611 54C582 57 553 64 523.8 64.5C494.7 65 465.3 59 436.2 55C407 51 378 49 349 47.5C320 46 291 45 262 43.5C233 42 204 40 174.8 45.5C145.7 51 116.3 64 87.2 64.5C58 65 29 53 14.5 47L0 41Z" fill="#dd005a"></path><path d="M0 109L14.5 115C29 121 58 133 87.2 129.5C116.3 126 145.7 107 174.8 106C204 105 233 122 262 126.5C291 131 320 123 349 117C378 111 407 107 436.2 114C465.3 121 494.7 139 523.8 146C553 153 582 149 611 148.5C640 148 669 151 698 151C727 151 756 148 785.2 146C814.3 144 843.7 143 872.8 133C902 123 931 104 945.5 94.5L960 85L960 59L945.5 66C931 73 902 87 872.8 97.5C843.7 108 814.3 115 785.2 116.5C756 118 727 114 698 111C669 108 640 106 611 109C582 112 553 120 523.8 116.5C494.7 113 465.3 98 436.2 91.5C407 85 378 87 349 90C320 93 291 97 262 93C233 89 204 77 174.8 80.5C145.7 84 116.3 103 87.2 102.5C58 102 29 82 14.5 72L0 62Z" fill="#ff0066"></path><path d="M0 208L14.5 205.5C29 203 58 198 87.2 186.5C116.3 175 145.7 157 174.8 162C204 167 233 195 262 210.5C291 226 320 229 349 231C378 233 407 234 436.2 228.5C465.3 223 494.7 211 523.8 203C553 195 582 191 611 201C640 211 669 235 698 242.5C727 250 756 241 785.2 230.5C814.3 220 843.7 208 872.8 202.5C902 197 931 198 945.5 198.5L960 199L960 83L945.5 92.5C931 102 902 121 872.8 131C843.7 141 814.3 142 785.2 144C756 146 727 149 698 149C669 149 640 146 611 146.5C582 147 553 151 523.8 144C494.7 137 465.3 119 436.2 112C407 105 378 109 349 115C320 121 291 129 262 124.5C233 120 204 103 174.8 104C145.7 105 116.3 124 87.2 127.5C58 131 29 119 14.5 113L0 107Z" fill="#ff4e83"></path><path d="M0 301L14.5 301C29 301 58 301 87.2 301C116.3 301 145.7 301 174.8 301C204 301 233 301 262 301C291 301 320 301 349 301C378 301 407 301 436.2 301C465.3 301 494.7 301 523.8 301C553 301 582 301 611 301C640 301 669 301 698 301C727 301 756 301 785.2 301C814.3 301 843.7 301 872.8 301C902 301 931 301 945.5 301L960 301L960 197L945.5 196.5C931 196 902 195 872.8 200.5C843.7 206 814.3 218 785.2 228.5C756 239 727 248 698 240.5C669 233 640 209 611 199C582 189 553 193 523.8 201C494.7 209 465.3 221 436.2 226.5C407 232 378 231 349 229C320 227 291 224 262 208.5C233 193 204 165 174.8 160C145.7 155 116.3 173 87.2 184.5C58 196 29 201 14.5 203.5L0 206Z" fill="#ff749e"></path></svg>